<svg xmlns="http://www.w3.org/2000/svg" xmlns:xlink="http://www.w3.org/1999/xlink" width="20.18" height="29.174" viewBox="0 0 20.18 29.174"><defs><linearGradient id="a" y1="0.5" x2="1" y2="0.5" gradientUnits="objectBoundingBox"><stop offset="0" stop-color="#ef8336"/><stop offset="1" stop-color="#ffb47e"/></linearGradient></defs><path d="M20.175,22.482V4.535A4.473,4.473,0,0,0,17.452.4,9.566,9.566,0,0,0,16.126,0H4.049a1.468,1.468,0,0,1-.186.053A4.544,4.544,0,0,0,0,4.42V24.754a4.518,4.518,0,0,0,4.42,4.42H15.728a4.518,4.518,0,0,0,4.42-4.42C20.184,23.2,20.184,23.313,20.175,22.482Zm-2.281,1.954a2.29,2.29,0,0,1-2.458,2.449H4.756a2.29,2.29,0,0,1-2.475-2.458V4.606A2.272,2.272,0,0,1,4.527,2.281H15.666a2.219,2.219,0,0,1,2.175,1.857c.062.362.044,17.6.053,18.751Z" fill="url(#a)"/><path d="M14.555,26.41a1.132,1.132,0,0,0-1.114-1.14H8.464a1.14,1.14,0,0,0,0,2.272H13.4a1.132,1.132,0,0,0,1.158-1.132Z" transform="translate(-0.861 -2.929)" fill="url(#a)"/><path d="M14.867,18.342l-3.21-7.232a.905.905,0,0,0-1.715.009c-.469,1.229-.99,2.475-1.512,3.669s-1.043,2.449-1.556,3.678A.866.866,0,0,0,8.068,19.65l2.652-1.211a.442.442,0,0,1,.336,0c.884.354,1.768.725,2.6,1.1a.886.886,0,0,0,1.211-1.194ZM11.392,16.7a1.1,1.1,0,0,0-1.008,0c-.354.177-.725.336-1.123.513l1.574-3.7,1.636,3.625C12.082,16.989,11.737,16.856,11.392,16.7Z" transform="translate(-0.783 -1.217)" fill="url(#a)"/></svg>