<svg xmlns="http://www.w3.org/2000/svg" xmlns:xlink="http://www.w3.org/1999/xlink" width="25.928" height="26.508" viewBox="0 0 25.928 26.508"><defs><linearGradient id="a" x1="-1.663" y1="0.542" x2="2.954" y2="0.46" gradientUnits="objectBoundingBox"><stop offset="0" stop-color="#ef8336"/><stop offset="1" stop-color="#ffb47e"/></linearGradient></defs><g transform="translate(0.083)"><g transform="translate(0.001)"><path d="M24.68,9.066a6.311,6.311,0,0,0-5.7-3.756,1.2,1.2,0,1,0-.1,2.4,3.9,3.9,0,0,1,3.652,2.4A1.2,1.2,0,1,0,24.68,9.066Z" transform="translate(-3.53 -1.057)" fill="url(#a)"/><path d="M15.857,0a10.011,10.011,0,0,0-10,10,9.891,9.891,0,0,0,2.627,6.647L.369,24.37a1.2,1.2,0,1,0,1.65,1.73l8.265-7.872a9.835,9.835,0,0,0,5.606,1.754,10.123,10.123,0,0,0,9.955-9.987A10,10,0,0,0,15.857,0Zm0,17.619a7.7,7.7,0,0,1-7.608-7.6,7.608,7.608,0,1,1,15.216,0A7.7,7.7,0,0,1,15.857,17.619Z" transform="translate(-0.001)" fill="url(#a)"/></g></g></svg>