<svg xmlns="http://www.w3.org/2000/svg" xmlns:xlink="http://www.w3.org/1999/xlink" width="25.417" height="27.091" viewBox="0 0 25.417 27.091"><defs><linearGradient id="a" y1="0.5" x2="1.002" y2="0.5" gradientUnits="objectBoundingBox"><stop offset="0" stop-color="#ef8336"/><stop offset="1" stop-color="#ffb47e"/></linearGradient></defs><g transform="translate(0 -0.377)"><g transform="translate(0 0.299)"><path d="M12.728,31.063C6.405,31.063,0,29.4,0,26.2c0-2.708,4.619-4.154,8.948-4.652l.191,1.886C4,23.993,1.878,25.513,1.878,26.2c0,1,3.822,2.966,10.8,2.966S23.52,27.208,23.52,26.2c0-.748-2.152-2.127-6.754-2.708L17,21.608c5.267.673,8.416,2.384,8.416,4.594C25.464,29.4,19.058,31.063,12.728,31.063Z" transform="translate(0 -3.895)" fill="url(#a)"/><path d="M14.6,13.492a3.556,3.556,0,1,1,3.556-3.556A3.556,3.556,0,0,1,14.6,13.492Z" transform="translate(-1.868 -1.328)" fill="url(#a)"/><path d="M13.474,23.014A2.31,2.31,0,0,1,12,22.482c-.3-.266-7.585-6.555-7.585-13.218A9.072,9.072,0,0,1,22.546,9v.282c0,6.771-7.535,13.151-7.61,13.218a2.293,2.293,0,0,1-1.446.532h0Zm0-20.82h-.108a6.929,6.929,0,0,0-6.8,7.037c0,5.7,6.771,11.548,6.846,11.631h.075a.1.1,0,0,0,.075,0c.091-.075,6.846-5.9,6.846-11.589a1.08,1.08,0,0,0,0-.233,6.929,6.929,0,0,0-6.929-6.846Z" transform="translate(-0.746 -0.299)" fill="url(#a)"/></g></g></svg>