<svg xmlns="http://www.w3.org/2000/svg" xmlns:xlink="http://www.w3.org/1999/xlink" width="23.755" height="25.101" viewBox="0 0 23.755 25.101"><defs><linearGradient id="a" x1="-0.076" y1="0.53" x2="1.403" y2="0.453" gradientUnits="objectBoundingBox"><stop offset="0" stop-color="#ef8336"/><stop offset="1" stop-color="#f2a771"/></linearGradient></defs><path d="M22.5.076,22.309,0h-.761l-1.52.761L15.684,3.043,10.36.525l-.654-.3-.3-.091L9.128,0H8.367L6.587.852,1.263,3.339A2.16,2.16,0,0,0,.046,4.7L0,4.868V23.633l.1.221A2.008,2.008,0,0,0,1.263,25.01a1.582,1.582,0,0,0,.54.091,2.13,2.13,0,0,0,.852-.2l2.16-1.019,3.963-1.864,2.373,1.118,3.666,1.727a2.038,2.038,0,0,0,1.917-.046c1.947-1.034,3.894-2.069,5.849-3.088a2.122,2.122,0,0,0,1.164-1.993V2.153A2.054,2.054,0,0,0,22.5.076ZM3.978,21.876l-1.909.89V5.362h.046C3.887,4.541,5.659,3.7,7.439,2.875l.312-.145V20.1ZM9.8,20.1V2.7l4.929,2.32v17.4L12,21.131Zm11.866-.319h0q-2.43,1.266-4.853,2.563V4.937l4.145-2.191.723-.373c-.01,5.766-.01,11.539-.01,17.4Z" fill="url(#a)"/></svg>