<svg xmlns="http://www.w3.org/2000/svg" xmlns:xlink="http://www.w3.org/1999/xlink" width="24.66" height="22.214" viewBox="0 0 24.66 22.214"><defs><linearGradient id="a" y1="0.5" x2="0.81" y2="0.722" gradientUnits="objectBoundingBox"><stop offset="0" stop-color="#ef8336"/><stop offset="1" stop-color="#ffb47e"/></linearGradient></defs><g transform="translate(478.127 60)"><path d="M-441.3-61a13.378,13.378,0,0,1,2.861,1.374,5.114,5.114,0,0,1,1.568,6.062,33.092,33.092,0,0,1-2.021,3.993,1.348,1.348,0,0,0,1.665.032,1.856,1.856,0,0,1,.436-.226c.873-.323,1.406-.7,1.309-1.875a2.716,2.716,0,0,1,.933-2.079,2.716,2.716,0,0,1,2.187-.637,2.886,2.886,0,0,1,2.008,1.153,2.886,2.886,0,0,1,.514,2.258,2.721,2.721,0,0,1-1.294,1.922,2.721,2.721,0,0,1-2.306.228,2.612,2.612,0,0,0-2.651.372c-.145.081-.291.145-.485.259a2.568,2.568,0,0,1,.582,1.893,2.568,2.568,0,0,1-.938,1.744,16.976,16.976,0,0,0,1.794.905c.178.065.5-.194.711-.356a2.883,2.883,0,0,1,3.993.5,2.862,2.862,0,0,1-.388,3.993,2.8,2.8,0,0,1-2.053.679,2.8,2.8,0,0,1-1.924-.986,8.007,8.007,0,0,1-.744-1.827,5.053,5.053,0,0,0-.469-.727c-.048-.065-.145-.065-.21-.113a4.665,4.665,0,0,0-4.138-.7,8.37,8.37,0,0,1-4.7-.242,1.944,1.944,0,0,0-1.051.065,12.814,12.814,0,0,0-1.164.566,2.141,2.141,0,0,0-1.568,1.843,2.745,2.745,0,0,1-1.42,1.836,2.745,2.745,0,0,1-2.32.091,2.87,2.87,0,0,1-1.657-1.615,2.87,2.87,0,0,1,.073-2.313,2.737,2.737,0,0,1,1.732-1.541,2.737,2.737,0,0,1,2.293.341c.921.711,1.5.42,2.263-.016.21-.129.4-.242.679-.388a2.6,2.6,0,0,1-.307-3.637,16.311,16.311,0,0,0-1.843-.921,1.547,1.547,0,0,0-.938.178,2.923,2.923,0,0,1-3.12-.388,2.722,2.722,0,0,1-.921-2.91,2.706,2.706,0,0,1,2.215-2.1,2.837,2.837,0,0,1,2.476.675,2.837,2.837,0,0,1,.919,2.4c-.048.6.081.9.63,1.1a2.344,2.344,0,0,1,.727.356,1.619,1.619,0,0,0,1.187.414,1.619,1.619,0,0,0,1.125-.559,30.891,30.891,0,0,1-1.649-3.039,5.523,5.523,0,0,1,2.215-7.291A15.285,15.285,0,0,1-442.561-61Zm-.6,12.383c1.762-1.714,3.3-3.411,3.912-5.755a4.115,4.115,0,0,0-1.584-4.51,4.017,4.017,0,0,0-4.559-.081,4.029,4.029,0,0,0-1.746,4.365C-445.325-52.141-443.692-50.379-441.9-48.617Zm-.113,4.284a27.248,27.248,0,0,0,2.813-.63c.76-.242,1.665-.566,1.665-1.52s-.938-1.212-1.665-1.552a1.277,1.277,0,0,0-1.713.259c-.63.679-1.39.566-2.134-.113-.986-.921-1-.921-2.15-.21a5.4,5.4,0,0,0-.776.582c-.938.857-.873,1.5.21,2.166a8.278,8.278,0,0,0,3.752,1.017Zm-9.6,1.326a1.43,1.43,0,0,0-1.309,1.374,1.417,1.417,0,0,0,1.374,1.309,1.4,1.4,0,0,0,1.309-1.374,1.4,1.4,0,0,0-1.374-1.31Zm1.39-8.519a1.373,1.373,0,0,0-1.406-1.277,1.356,1.356,0,0,0-1.277,1.326,1.382,1.382,0,0,0,1.358,1.326,1.408,1.408,0,0,0,1.325-1.376Zm18.865.081a1.36,1.36,0,0,0-1.309-1.374,1.335,1.335,0,0,0-1.342,1.326,1.341,1.341,0,0,0,1.277,1.309,1.3,1.3,0,0,0,.954-.34,1.3,1.3,0,0,0,.42-.922Zm-1.293,8.438a1.408,1.408,0,0,0-1.358,1.342,1.4,1.4,0,0,0,1.358,1.342,1.368,1.368,0,0,0,1.293-1.309,1.357,1.357,0,0,0-1.293-1.376Z" transform="translate(-23.679 1)" fill="url(#a)"/><path d="M-387.9-41.1a1.881,1.881,0,0,1,1.426.575,1.881,1.881,0,0,1,.52,1.447,1.938,1.938,0,0,1-.578,1.389,1.937,1.937,0,0,1-1.4.557,2,2,0,0,1-1.417-.613,2,2,0,0,1-.558-1.439,1.939,1.939,0,0,1,.6-1.38A1.939,1.939,0,0,1-387.9-41.1Z" transform="translate(-77.658 -15.336)" fill="url(#a)"/></g></svg>