<svg xmlns="http://www.w3.org/2000/svg" xmlns:xlink="http://www.w3.org/1999/xlink" width="23.526" height="29.992" viewBox="0 0 23.526 29.992"><defs><linearGradient id="a" y1="0.499" x2="0.998" y2="0.499" gradientUnits="objectBoundingBox"><stop offset="0" stop-color="#ef8336"/><stop offset="1" stop-color="#ffb47e"/></linearGradient></defs><g transform="translate(0.001 0.001)"><g transform="translate(-0.001 -0.001)"><path d="M19.657,16.252a3.793,3.793,0,0,0-3.006,1.494L9.673,15.562a3.82,3.82,0,0,0-2.511-2.7c1.406-1.45,3.776-4.333,3.776-7.313V5.385A5.47,5.47,0,1,0,0,5.553c0,3.219,2.768,6.331,4.1,7.64a3.811,3.811,0,1,0,5.624,3.961l6.19,1.919v.38a4.209,4.209,0,0,0-.062.584,2.715,2.715,0,0,0,.053.469L11.283,22.99a3.8,3.8,0,1,0,.884,2.4A3.917,3.917,0,0,0,12,24.316l4.421-2.308a3.811,3.811,0,1,0,3.289-5.73ZM2.069,5.544a3.449,3.449,0,0,1,3.4-3.457A3.44,3.44,0,0,1,8.842,5.544c0,2.414-2.219,4.934-3.369,6.092C4.324,10.478,2.069,7.958,2.069,5.544ZM5.986,18.808a.963.963,0,1,1,0,.009ZM8.329,27.65a2.328,2.328,0,1,1,0,.027Zm11.327-5.305a2.317,2.317,0,0,1-2.175-1.565L17.4,19.5a2.317,2.317,0,1,1,2.255,2.847Z" transform="translate(0.001 0.001)" fill="url(#a)"/><circle cx="1.698" cy="1.698" r="1.698" transform="translate(3.776 3.785)" fill="url(#a)"/></g></g></svg>