<svg xmlns="http://www.w3.org/2000/svg" xmlns:xlink="http://www.w3.org/1999/xlink" width="25.883" height="25.9" viewBox="0 0 25.883 25.9"><defs><linearGradient id="a" x1="-0.001" y1="0.5" x2="1" y2="0.5" gradientUnits="objectBoundingBox"><stop offset="0" stop-color="#ef8336"/><stop offset="1" stop-color="#f2a771"/></linearGradient><linearGradient id="b" x1="0.002" y1="0.498" y2="0.498" xlink:href="#a"/></defs><g transform="translate(-0.029)"><g transform="translate(0.029)"><path d="M14.918,25.9H10.994l-.118-.047a1.4,1.4,0,0,1-.785-2.2,3.006,3.006,0,0,1,.306-.4,1.114,1.114,0,0,0,.3-.95.2.2,0,0,0-.173-.22,9.347,9.347,0,0,1-2.284-.942c-.047,0-.141-.071-.149-.055a2.982,2.982,0,0,0-.518.628,2.158,2.158,0,0,0-.11.714,1.389,1.389,0,0,1-.95,1.232,1.366,1.366,0,0,1-1.507-.36Q3.82,22.108,2.651,20.947a1.719,1.719,0,0,1-.377-.589A1.4,1.4,0,0,1,3.5,18.5c.526-.055,1.067-.078,1.366-.675A9.818,9.818,0,0,1,3.83,15.376a.235.235,0,0,0-.165-.11,1.091,1.091,0,0,0-.95.275,2.794,2.794,0,0,1-.487.361,1.35,1.35,0,0,1-1.413.078A1.326,1.326,0,0,1,.03,14.755c0-1.177,0-2.354,0-3.54A1.326,1.326,0,0,1,.791,9.967a1.342,1.342,0,0,1,1.436.086c.22.141.416.322.636.455a1.052,1.052,0,0,0,.479.157c.439,0,.416,0,.573-.408C4.189,9.52,4.5,8.79,4.8,8.029a1.091,1.091,0,0,0-.965-.542,2.613,2.613,0,0,1-.424-.055,1.373,1.373,0,0,1-1.162-.918A1.287,1.287,0,0,1,2.518,5.1c.848-.879,1.719-1.734,2.59-2.59a1.24,1.24,0,0,1,1.02-.345,1.389,1.389,0,0,1,1.31,1.327c.063.526.094,1.052.683,1.334A9.638,9.638,0,0,1,10.546,3.8a.243.243,0,0,0,.126-.173,1.067,1.067,0,0,0-.275-.95,2.794,2.794,0,0,1-.361-.487A1.35,1.35,0,0,1,9.965.79,1.3,1.3,0,0,1,11.159,0h3.594a1.4,1.4,0,0,1,1.13,2.158,2.794,2.794,0,0,1-.361.487,1.044,1.044,0,0,0-.283.95.314.314,0,0,0,.149.2c.188.078.392.11.581.188.628.259,1.248.526,1.891.785a1.138,1.138,0,0,0,.557-1.012,2.355,2.355,0,0,1,.047-.33,1.4,1.4,0,0,1,.926-1.177A1.358,1.358,0,0,1,20.9,2.6c.785.785,1.625,1.57,2.409,2.417a1.719,1.719,0,0,1,.408.785A1.4,1.4,0,0,1,22.43,7.474c-.432.063-.91,0-1.216.463a.3.3,0,0,0-.055.361c.3.628.581,1.248.824,1.891s.188.565.785.51a.51.51,0,0,0,.22-.1c.251-.173.479-.369.73-.534a1.4,1.4,0,0,1,2.1.706l.094.22v3.924l-.094.259a1.4,1.4,0,0,1-2.041.714,2.676,2.676,0,0,1-.51-.377,1.13,1.13,0,0,0-.9-.3.275.275,0,0,0-.29.22c-.235.644-.471,1.279-.746,1.9s-.275.526.165.91a.534.534,0,0,0,.243.11l.785.11a1.373,1.373,0,0,1,1.169.95,1.358,1.358,0,0,1-.353,1.468c-.785.785-1.57,1.632-2.433,2.425a1.7,1.7,0,0,1-.785.4,1.389,1.389,0,0,1-1.656-1.287c-.063-.455-.047-.926-.487-1.24a.267.267,0,0,0-.322-.039c-.636.29-1.271.589-1.915.84s-.573.181-.5.785a.455.455,0,0,0,.094.22,8.655,8.655,0,0,1,.549.785,1.4,1.4,0,0,1-.746,2.088Zm-.447-1.515c-.149-.2-.251-.353-.369-.494a1.7,1.7,0,0,1-.4-1.193V21.606a.785.785,0,0,1,.667-.84,8.421,8.421,0,0,0,3.1-1.287.73.73,0,0,1,1.012.1,10.665,10.665,0,0,1,.934.95,2.645,2.645,0,0,1,.4.785,3.877,3.877,0,0,1,.11.675l2.056-2.048-.455-.063a1.664,1.664,0,0,1-1.028-.432c-.314-.314-.636-.628-.95-.95a.738.738,0,0,1-.11-1,8.28,8.28,0,0,0,1.3-3.139.73.73,0,0,1,.785-.644h1.24a1.57,1.57,0,0,1,1.028.353l.542.4V11.443c-.173.133-.33.235-.471.353a1.68,1.68,0,0,1-1.185.4H21.589a.785.785,0,0,1-.855-.683,8.2,8.2,0,0,0-1.264-3.06A.738.738,0,0,1,19.627,7.4a11.552,11.552,0,0,1,.934-.926,2.668,2.668,0,0,1,.785-.392,3.336,3.336,0,0,1,.7-.118l-2.1-2.041c0,.133-.047.3-.063.463a1.7,1.7,0,0,1-.424,1.028c-.322.322-.644.644-.973.957a.722.722,0,0,1-.989.1A8.186,8.186,0,0,0,14.353,5.18a.785.785,0,0,1-.651-.832V3.233a1.672,1.672,0,0,1,.432-1.209c.126-.149.235-.314.361-.487H11.441c.118.165.212.306.322.432a1.766,1.766,0,0,1,.432,1.279V4.285a.785.785,0,0,1-.683.863,8.123,8.123,0,0,0-3.077,1.28.738.738,0,0,1-1.028-.11l-.934-.926a1.421,1.421,0,0,1-.408-.785,4.313,4.313,0,0,0-.1-.683L3.883,5.965l.463.063a1.7,1.7,0,0,1,1.028.424l.965.965a.738.738,0,0,1,.1.989,8.421,8.421,0,0,0-1.311,3.139.738.738,0,0,1-.785.636H3.1a1.475,1.475,0,0,1-.981-.322l-.542-.416v3.029c.173-.133.337-.243.479-.369a1.68,1.68,0,0,1,1.169-.392H4.362a.785.785,0,0,1,.785.644,8.4,8.4,0,0,0,1.3,3.139.722.722,0,0,1-.11,1,11.945,11.945,0,0,1-.95.942,2.621,2.621,0,0,1-.785.392,4.026,4.026,0,0,1-.651.11l2.025,2.033.063-.439A1.664,1.664,0,0,1,6.466,20.5c.322-.314.628-.636.95-.942a.722.722,0,0,1,1-.1,8.4,8.4,0,0,0,3.139,1.287.785.785,0,0,1,.667.848v1.185a1.57,1.57,0,0,1-.337,1.012c-.141.173-.267.353-.424.573H14.51Z" transform="translate(-0.029)" fill="url(#a)"/><path d="M9.39,12.435a3.029,3.029,0,1,1,.884,2.155,3.029,3.029,0,0,1-.884-2.155Zm1.515,0a1.511,1.511,0,1,0,0-.008Z" transform="translate(-2.043 -2.021)" fill="url(#b)"/><path d="M22.028,19.756a2.276,2.276,0,1,1-.669-1.612,2.276,2.276,0,0,1,.669,1.612Zm-1.515,0a.785.785,0,1,0-.785.785.785.785,0,0,0,.785-.785Z" transform="translate(-3.78 -3.761)" fill="url(#b)"/><path d="M20.06,10.515a.785.785,0,1,1-.785-.785A.785.785,0,0,1,20.06,10.515Z" transform="translate(-4.001 -2.094)" fill="url(#b)"/><path d="M22.409,14.32a.785.785,0,0,1,.746.785.785.785,0,1,1-1.515-.078.785.785,0,0,1,.769-.707Z" transform="translate(-4.671 -3.081)" fill="url(#b)"/><path d="M12.6,20.82a.785.785,0,1,1-.785.738A.785.785,0,0,1,12.6,20.82Z" transform="translate(-2.566 -4.48)" fill="url(#b)"/></g></g></svg>