<svg xmlns="http://www.w3.org/2000/svg" xmlns:xlink="http://www.w3.org/1999/xlink" width="26.694" height="26.674" viewBox="0 0 26.694 26.674"><defs><linearGradient id="a" y1="0.5" x2="0.999" y2="0.5" gradientUnits="objectBoundingBox"><stop offset="0" stop-color="#ef8336"/><stop offset="1" stop-color="#ffb47e"/></linearGradient></defs><g transform="translate(-0.153 -0.15)"><g transform="translate(0.15 0.15)"><path d="M24.1,5.421A13.105,13.105,0,0,0,15.689.328C15.236.247,14.783.207,14.322.15H12.657c-.5.065-.978.121-1.463.2a13.089,13.089,0,0,0-7.22,3.81,13.194,13.194,0,0,0-3.7,7.519c-.049.323-.081.655-.121.978v1.665c.065.493.113.986.2,1.471a13.154,13.154,0,0,0,5.772,8.8,12.669,12.669,0,0,0,7.648,2.223,13.024,13.024,0,0,0,9.7-4.536,12.758,12.758,0,0,0,3.235-6.98A12.976,12.976,0,0,0,24.1,5.421ZM12.7,1.856V6.707a17.14,17.14,0,0,1-3.485-.485A8.53,8.53,0,0,1,12.7,1.856ZM9.609,2.4A15.361,15.361,0,0,0,7.693,5.8L5.5,4.88A11.391,11.391,0,0,1,9.609,2.4ZM4.378,6.036,7.119,7.3c-.186.873-.412,1.762-.566,2.676s-.226,1.819-.34,2.757H1.743a11.747,11.747,0,0,1,2.636-6.7ZM1.743,14.29H6.262a21.02,21.02,0,0,0,.906,5.41l-2.79,1.252A11.747,11.747,0,0,1,1.743,14.29ZM5.5,22.132l2.191-.946a15.159,15.159,0,0,0,1.916,3.4A11.319,11.319,0,0,1,5.5,22.132Zm2.328-7.85h4.851v4.341l-4.04.577a19.266,19.266,0,0,1-.808-4.915Zm4.851,10.842a8.484,8.484,0,0,1-3.468-4.309,14,14,0,0,1,3.468-.509Zm0-12.434H7.83a19.4,19.4,0,0,1,.808-4.94l4.042.582Zm8.8-7.81L19.3,5.826a15.361,15.361,0,0,0-1.924-3.4,11.319,11.319,0,0,1,4.107,2.45ZM14.3,1.9l.291.137a5.312,5.312,0,0,1,1.617,1.439,11.262,11.262,0,0,1,1.577,2.733,17.317,17.317,0,0,1-3.46.485Zm0,6.468,4.042-.582a19.266,19.266,0,0,1,.808,4.948H14.3Zm0,5.958h4.851a18.918,18.918,0,0,1-.808,4.94L14.3,18.68Zm0,10.833V20.24l3.517.485a8.3,8.3,0,0,1-3.533,4.366Zm3.088-.542a15.021,15.021,0,0,0,1.916-3.4l2.191.946a11.213,11.213,0,0,1-4.123,2.417Zm5.231-3.63-2.781-1.253a20.859,20.859,0,0,0,.9-5.409h4.519A11.747,11.747,0,0,1,22.6,20.952Zm-1.9-8.287a21.093,21.093,0,0,0-.9-5.392L22.6,6.06a11.763,11.763,0,0,1,2.644,6.662Z" transform="translate(-0.15 -0.15)" fill="url(#a)"/></g></g></svg>