<svg xmlns="http://www.w3.org/2000/svg" xmlns:xlink="http://www.w3.org/1999/xlink" width="31.01" height="24.623" viewBox="0 0 31.01 24.623"><defs><linearGradient id="a" x1="0.21" y1="0.676" x2="0.896" y2="0.379" gradientUnits="objectBoundingBox"><stop offset="0" stop-color="#ef8336"/><stop offset="1" stop-color="#ffb47e"/></linearGradient></defs><g transform="translate(537.458 169.448)"><path d="M-506.448-164.928a4.084,4.084,0,0,1-3.222,3.029,1.548,1.548,0,0,1-.683.053c-1.016-.35-1.471.245-1.944,1.016-.981,1.593-2.049,3.152-3.012,4.64a12.881,12.881,0,0,1,1.191,2.346,3.626,3.626,0,0,1-1.436,3.975,3.827,3.827,0,0,1-4.325.105,3.68,3.68,0,0,1-1.628-3.922.922.922,0,0,0-.508-1.173c-.35-.21-.665-.455-1-.683-1.733-1.208-1.733-1.226-3.7-.84a1.212,1.212,0,0,0-.63.525c-1,1.348-1.944,2.731-2.942,4.08a.908.908,0,0,0-.07,1.208,3.766,3.766,0,0,1,.389,3.052,3.766,3.766,0,0,1-2.017,2.323,3.831,3.831,0,0,1-3,.119,3.831,3.831,0,0,1-2.165-2.08,3.759,3.759,0,0,1,.036-3.081,3.759,3.759,0,0,1,2.328-2.019,3.562,3.562,0,0,1,1.541-.14,1.141,1.141,0,0,0,1.261-.63c1-1.453,2.049-2.872,3.064-4.307-1.523-2.031-1.593-3.975-.228-5.463a3.825,3.825,0,0,1,4.833-.683c1.733,1.1,2.224,2.994,1.261,5.323.911.648,1.856,1.3,2.784,1.961.018.018.053.053.07.053.14-.018.315,0,.385-.07.753-.753,2.049-.07,2.7-1.068,1.173-1.8,2.364-3.572,3.5-5.393a1.035,1.035,0,0,0,.07-.875,3.774,3.774,0,0,1,.123-4.255,3.569,3.569,0,0,1,3.712-1.576,3.646,3.646,0,0,1,3.117,2.872.5.5,0,0,0,.14.193Zm-19.891,2.539a2.149,2.149,0,0,0-2.119,2.171,2.138,2.138,0,0,0,.645,1.511,2.138,2.138,0,0,0,1.526.608,2.1,2.1,0,0,0,1.517-.627,2.1,2.1,0,0,0,.6-1.527,2.163,2.163,0,0,0-2.171-2.136Zm16.056-5.41a2.172,2.172,0,0,0-2.171,2.119,2.148,2.148,0,0,0,2.136,2.154,2.1,2.1,0,0,0,1.527-.6,2.1,2.1,0,0,0,.627-1.517,2.133,2.133,0,0,0-.612-1.518,2.133,2.133,0,0,0-1.507-.637Zm-5.358,14.778a2.175,2.175,0,0,0-2.189-2.119,2.16,2.16,0,0,0-2.1,2.189,2.138,2.138,0,0,0,.658,1.505,2.138,2.138,0,0,0,1.531.595,2.134,2.134,0,0,0,1.5-.65,2.134,2.134,0,0,0,.6-1.521Zm-15.846,4.342a2.354,2.354,0,0,0-2.119-2.136,2.178,2.178,0,0,0-2.171,2.154,2.19,2.19,0,0,0,2.154,2.171,2.214,2.214,0,0,0,2.136-2.189Z" fill="url(#a)"/></g></svg>