<svg xmlns="http://www.w3.org/2000/svg" xmlns:xlink="http://www.w3.org/1999/xlink" width="27.404" height="28.66" viewBox="0 0 27.404 28.66"><defs><linearGradient id="a" y1="0.5" x2="1" y2="0.5" gradientUnits="objectBoundingBox"><stop offset="0" stop-color="#ef8336"/><stop offset="1" stop-color="#f2a771"/></linearGradient><linearGradient id="b" y1="0.5" x2="0.998" y2="0.5" gradientUnits="objectBoundingBox"><stop offset="0" stop-color="#ef8336"/><stop offset="1" stop-color="#fdf3ea"/></linearGradient><linearGradient id="c" x1="0.039" y1="0.501" x2="1.005" y2="0.501" xlink:href="#b"/><linearGradient id="d" x1="18.019" y1="-34.537" x2="18.846" y2="-34.537" xlink:href="#b"/></defs><path d="M19.671,20.592a1.12,1.12,0,0,0-2.093.556V24a2.249,2.249,0,0,1-2.414,2.406H4.672A2.249,2.249,0,0,1,2.241,24V4.525A2.232,2.232,0,0,1,4.447,2.241H15.39a2.18,2.18,0,0,1,2.136,1.824,7.877,7.877,0,0,1,.052,1.146,1.12,1.12,0,1,0,2.241,0V4.49A4.395,4.395,0,0,0,17.144.39a9.4,9.4,0,0,0-1.3-.39H3.978A1.442,1.442,0,0,1,3.8.052,4.464,4.464,0,0,0,0,4.342V24.318A4.438,4.438,0,0,0,4.342,28.66H15.45a4.438,4.438,0,0,0,4.342-4.342V21.157a1.225,1.225,0,0,0-.121-.565Z" fill="url(#a)"/><path d="M13.32,5.7a1.1,1.1,0,0,0-1.094-1.11H9.942A1.129,1.129,0,0,0,8.83,5.7,1.112,1.112,0,0,0,9.95,6.813h2.241A1.1,1.1,0,0,0,13.32,5.7Z" transform="translate(-1.161 -0.604)" fill="url(#b)"/><path d="M11.15,24.469a1.537,1.537,0,1,0,0,3.066A1.52,1.52,0,0,0,12.678,26a1.537,1.537,0,0,0-1.529-1.529Z" transform="translate(-1.249 -3.217)" fill="url(#c)"/><path d="M17.7,20.292q3.543-3.761,7.078-7.547a1.129,1.129,0,0,0,.269-1.32,1.146,1.146,0,0,0-1.172-.686H13.456a1.164,1.164,0,0,0-1.207.712,1.138,1.138,0,0,0,.391,1.329c.938.868,1.893,1.737,2.831,2.605a.669.669,0,0,1,.174.4v3.691a1.129,1.129,0,0,0,2.032.808Zm.217-4.985a1.364,1.364,0,0,0-.521-1.2c-.4-.339-.764-.7-1.19-1.094h5.263l-3.561,3.8c0-.568-.014-1.046.012-1.506Z" transform="translate(-2.265 25.167) rotate(-64.024)" fill="url(#d)"/></svg>