<svg xmlns="http://www.w3.org/2000/svg" xmlns:xlink="http://www.w3.org/1999/xlink" width="22.906" height="27.07" viewBox="0 0 22.906 27.07"><defs><linearGradient id="a" y1="0.5" x2="1" y2="0.5" gradientUnits="objectBoundingBox"><stop offset="0" stop-color="#ef8336"/><stop offset="1" stop-color="#ffb47e"/></linearGradient></defs><path d="M18.583,19.453a1.058,1.058,0,0,0-1.977.525v2.7a2.125,2.125,0,0,1-2.281,2.273H4.414a2.125,2.125,0,0,1-2.3-2.281V4.275A2.109,2.109,0,0,1,4.2,2.117H14.538A2.059,2.059,0,0,1,16.557,3.84a7.442,7.442,0,0,1,.049,1.083,1.059,1.059,0,0,0,2.117,0V4.242A4.151,4.151,0,0,0,16.2.369,8.877,8.877,0,0,0,14.965,0H3.758a1.362,1.362,0,0,1-.172.049A4.217,4.217,0,0,0,0,4.1V22.97a4.192,4.192,0,0,0,4.1,4.1H14.6a4.192,4.192,0,0,0,4.1-4.1V19.984a1.157,1.157,0,0,0-.115-.533Z" fill="url(#a)"/><path d="M13.072,5.64a1.042,1.042,0,0,0-1.034-1.05H9.88A1.067,1.067,0,0,0,8.83,5.64,1.05,1.05,0,0,0,9.888,6.69H12a1.042,1.042,0,0,0,1.067-1.05Z" transform="translate(-1.585 -0.824)" fill="url(#a)"/><path d="M11.058,24.469a1.452,1.452,0,1,0,0,2.9A1.436,1.436,0,0,0,12.5,25.913a1.452,1.452,0,0,0-1.444-1.444Z" transform="translate(-1.705 -4.393)" fill="url(#a)"/><path d="M25.539,18.6c-1.321-2.978-2.658-5.956-3.979-8.926a1.083,1.083,0,0,0-2.068,0l-1.936,4.553-1.887,4.545a1.1,1.1,0,0,0,.18,1.321,1.075,1.075,0,0,0,1.3.139c1.108-.5,2.207-1.009,3.323-1.5a.542.542,0,0,1,.41,0c1.075.443,2.141.9,3.216,1.354a1.091,1.091,0,0,0,1.288-.18,1.067,1.067,0,0,0,.156-1.3Zm-4.275-2.018a1.3,1.3,0,0,0-1.239,0c-.435.222-.894.41-1.387.64l1.928-4.578c.673,1.5,1.321,2.962,2.01,4.488-.484-.2-.919-.361-1.313-.55Z" transform="translate(-2.788 -1.6)" fill="url(#a)"/></svg>