<svg xmlns="http://www.w3.org/2000/svg" xmlns:xlink="http://www.w3.org/1999/xlink" width="28.212" height="24.011" viewBox="0 0 28.212 24.011"><defs><linearGradient id="a" y1="0.498" x2="0.999" y2="0.498" gradientUnits="objectBoundingBox"><stop offset="0" stop-color="#ef8336"/><stop offset="1" stop-color="#ffb47e"/></linearGradient></defs><g transform="translate(0.017 0.177)"><g transform="translate(-0.015 -0.196)"><path d="M27.916,21.126a18.079,18.079,0,0,0-7.3-7.252,13.235,13.235,0,0,0-10.878-.957,16.629,16.629,0,0,0-7,4.7A16.818,16.818,0,0,0,.126,21.344a1.1,1.1,0,0,0,.725,1.617,1.131,1.131,0,0,0,1.269-.689A15.5,15.5,0,0,1,8.408,15.9,11.161,11.161,0,0,1,16.8,14.737a13.692,13.692,0,0,1,6.041,3.452A15.882,15.882,0,0,1,26.1,22.345a1.1,1.1,0,0,0,2.038-.145l.058-.123v-.435C28.083,21.475,28.011,21.286,27.916,21.126Z" transform="translate(0.015 -3.202)" fill="url(#a)"/><path d="M17.375,18.08A5.388,5.388,0,1,0,21.2,19.663,5.388,5.388,0,0,0,17.375,18.08Zm-.022,8.644a3.213,3.213,0,1,1,3.213-3.191A3.213,3.213,0,0,1,17.353,26.724Z" transform="translate(-3.273 -4.826)" fill="url(#a)"/><path d="M2.919,12.086a2.625,2.625,0,0,0,.674.319A1.233,1.233,0,0,0,4.63,11.68a1.015,1.015,0,0,0-.23-1.189Q3.159,9.323,1.875,8.2a1.066,1.066,0,0,0-1.523.116A1.066,1.066,0,0,0,.417,9.831C1.244,10.592,2.078,11.354,2.919,12.086Z" transform="translate(-0.007 -2.038)" fill="url(#a)"/><path d="M33.535,12.341a1.755,1.755,0,0,0,.529-.232q1.327-1.146,2.6-2.335a1.1,1.1,0,0,0-1.45-1.617c-.878.761-1.741,1.545-2.589,2.335a1.023,1.023,0,0,0-.2,1.2,1.139,1.139,0,0,0,1.117.653Z" transform="translate(-8.867 -2.046)" fill="url(#a)"/><path d="M18.991,5.443A1.1,1.1,0,0,0,20.1,4.3V1.085a1.1,1.1,0,1,0-2.176,0V4.3A1.1,1.1,0,0,0,18.99,5.446Z" transform="translate(-4.91 0.196)" fill="url(#a)"/></g></g></svg>