<svg xmlns="http://www.w3.org/2000/svg" xmlns:xlink="http://www.w3.org/1999/xlink" width="20.579" height="21.044" viewBox="0 0 20.579 21.044"><defs><linearGradient id="a" x1="0.107" y1="0.503" x2="1.373" y2="0.486" gradientUnits="objectBoundingBox"><stop offset="0" stop-color="#ef8336"/><stop offset="1" stop-color="#ffb47e"/></linearGradient></defs><g transform="translate(0.042)"><g transform="translate(0.001)"><path d="M12.6,0A7.957,7.957,0,0,0,4.66,7.944a7.861,7.861,0,0,0,2.088,5.283L.293,19.37A.95.95,0,1,0,1.6,20.745l6.569-6.257a7.817,7.817,0,0,0,4.456,1.394,8.046,8.046,0,0,0,7.912-7.938A7.95,7.95,0,0,0,12.6,0Zm0,14A6.123,6.123,0,0,1,6.557,7.963a6.047,6.047,0,1,1,12.094,0A6.123,6.123,0,0,1,12.6,14Z" transform="translate(-0.001)" fill="url(#a)"/><path d="M16.4,10.651a2.037,2.037,0,0,1-.344-1.782,1.967,1.967,0,0,1,.764-1.088,2.031,2.031,0,0,1,2.508.1,1.954,1.954,0,0,1,.719,1.311,2,2,0,0,1-.414,1.458,3.183,3.183,0,0,1,1.119,1.15,3.081,3.081,0,0,1,.407,1.528H19.906a1.91,1.91,0,0,0-3.775,0H14.89a3.183,3.183,0,0,1,1.51-2.677Zm1.617-.471a.777.777,0,1,0-.568-.214.777.777,0,0,0,.568.214Z" transform="translate(-5.412 -2.688)" fill="url(#a)"/></g></g></svg>